<svg xmlns="http://www.w3.org/2000/svg" width="20" height="20"><path d="M16.725 17.394l.01.008-.333.278c-.033.028-.07.052-.103.079-.153.124-.31.243-.47.357-.066.048-.132.097-.199.143a10.206 10.206 0 01-1.393.796l-.083.037c-.75.345-1.55.598-2.385.748l-.068.012c-.26.045-.524.08-.792.104l-.101.008c-.267.021-.536.036-.808.036-.275 0-.546-.015-.815-.036-.033-.004-.065-.005-.098-.008-.27-.025-.536-.061-.8-.107l-.066-.012a9.899 9.899 0 01-2.419-.765l-.051-.023a10.245 10.245 0 01-2.125-1.351c-.021-.018-.044-.032-.065-.05l-.325-.274.01-.008A9.975 9.975 0 010 10C0 4.486 4.486 0 10 0s10 4.486 10 10a9.974 9.974 0 01-3.275 7.394zm-12.916-.499a2.66 2.66 0 01.274-.172l2.875-1.569a.811.811 0 00.422-.712V13.39a6.834 6.834 0 01-1.124-2.323 1.322 1.322 0 01-.488-1.026V8.75c0-.315.116-.62.323-.86V6.192c-.019-.189-.086-1.254.685-2.132.67-.765 1.755-1.152 3.224-1.152 1.47 0 2.554.387 3.224 1.152.77.879.704 1.944.685 2.132V7.89c.207.24.323.546.323.861v1.29c0 .518-.298.976-.759 1.195a7.414 7.414 0 01-.95 1.863 6.09 6.09 0 01-.225.297v1.076c0 .308.171.586.448.724l3.079 1.54c.11.055.218.12.324.195A9.25 9.25 0 0019.273 10c0-5.113-4.16-9.273-9.273-9.273C4.887.727.727 4.887.727 10a9.25 9.25 0 003.082 6.895zm11.749.522a3.46 3.46 0 00-.058-.03l-3.08-1.54a1.528 1.528 0 01-.85-1.374v-1.346l.09-.103c.08-.09.173-.21.268-.345a6.72 6.72 0 00.908-1.83l.058-.18.18-.055a.607.607 0 00.43-.573V8.752a.595.595 0 00-.202-.445l-.12-.108.003-2.073c0-.007.101-.898-.514-1.593-.527-.595-1.425-.897-2.671-.897-1.25 0-2.152.305-2.678.904-.616.702-.508 1.577-.507 1.585l.003.048v2.025l-.12.109a.594.594 0 00-.202.444v1.29c0 .203.104.392.28.506l.123.08.033.144a6.074 6.074 0 001.092 2.26l.083.102v1.309c0 .564-.307 1.08-.801 1.35l-2.876 1.57-.034.02.048.038a9.202 9.202 0 00.645.44c.179.112.36.22.547.319l.08.04c.203.107.41.207.62.297 0 .002.002.002.004.003a9.548 9.548 0 002.134.627l.031.005c.227.037.457.064.687.085l.119.009c.229.017.458.029.689.029a8.856 8.856 0 00.802-.038c.228-.02.456-.046.682-.083l.02-.004c.24-.04.478-.088.714-.146h.002c.233-.058.464-.125.692-.2l.046-.016a9.242 9.242 0 001.269-.537l.118-.06a9.063 9.063 0 001.095-.687c.039-.028.079-.055.118-.085z"/></svg>