<svg xmlns="http://www.w3.org/2000/svg" width="20" height="20"><path d="M20 1.403V20H0V1.403h5.207C5.367.603 6.064 0 6.897 0c.95 0 1.724.787 1.724 1.754S7.847 3.51 6.897 3.51a.348.348 0 01-.345-.351c0-.195.154-.351.345-.351.57 0 1.034-.473 1.034-1.053S7.467.701 6.897.701c-.45 0-.829.295-.971.702h.626c.19 0 .345.157.345.351a.348.348 0 01-.345.351H.69v3.158h18.62V2.105h-4.517c-.16.8-.857 1.404-1.69 1.404a.348.348 0 01-.344-.351c0-.195.154-.351.344-.351.57 0 1.035-.473 1.035-1.053S13.674.701 13.103.701a.348.348 0 01-.344-.35c0-.194.154-.351.344-.351.833 0 1.53.604 1.69 1.403zm-.69 4.562H.69v13.333h18.62zM4.24 9.927l2.068-2.105a.34.34 0 01.562.114.363.363 0 01.028.134v8.772H7.93c.19 0 .345.157.345.35a.348.348 0 01-.345.352H5.172a.348.348 0 01-.344-.352c0-.193.154-.35.344-.35h1.035V8.917l-1.48 1.506a.342.342 0 01-.488 0 .355.355 0 010-.496zm10.589 5.16v-3.196a2.387 2.387 0 01-1.725.74c-1.33 0-2.413-1.102-2.413-2.456 0-1.354 1.082-2.456 2.413-2.456 1.331 0 2.414 1.102 2.414 2.456v4.912c0 1.355-1.083 2.457-2.414 2.457-1.33 0-2.413-1.102-2.413-2.457 0-.193.154-.35.344-.35.19 0 .345.157.345.35 0 .968.774 1.755 1.724 1.755.951 0 1.724-.787 1.724-1.755zm0-4.912c0-.967-.774-1.754-1.725-1.754-.95 0-1.724.787-1.724 1.754s.774 1.755 1.724 1.755c.951 0 1.725-.788 1.725-1.755zM8.62.351c0-.194.154-.351.344-.351.951 0 1.725.787 1.725 1.754S9.916 3.51 8.965 3.51a.348.348 0 01-.344-.351c0-.195.154-.351.344-.351.57 0 1.035-.473 1.035-1.053S9.536.701 8.965.701a.348.348 0 01-.344-.35zm2.069 0c0-.194.154-.351.344-.351.951 0 1.725.787 1.725 1.754s-.774 1.755-1.725 1.755a.348.348 0 01-.344-.351c0-.195.154-.351.344-.351.57 0 1.035-.473 1.035-1.053S11.605.701 11.034.701a.348.348 0 01-.344-.35z"/></svg>