<svg xmlns="http://www.w3.org/2000/svg" width="150" height="79"><path d="M102.685-.002c1.277.65 1.714 2.075 2.326 3.256 8.577 18.4 17.346 36.71 25.87 55.133a191.623 191.623 0 01-3.833 1.795c-4.576-9.874-9.274-19.696-13.888-29.554-2.533.401-4.95 1.408-7.522 1.484-7.958.083-15.916-.091-23.866.075-.405.213-1.209.644-1.614.856 8.524.727 17.124.06 25.68.348-.307.47-.919 1.394-1.233 1.856-5.632.288-11.286-.068-16.918.18.069.288.214.873.29 1.16 5.365.023 10.736-.015 16.108.023-4.813 9.677-9.465 19.43-14.324 29.085-9.259-.054-18.51.03-27.76-.038-4.24-.016-7.6-2.99-9.696-6.383-12.174.113-24.348-.06-36.514.068-.015-1.576-.023-3.15-.015-4.725 11.34.03 22.687.076 34.035-.008-3.81-6.43-7.438-12.956-11.325-19.34-3.772 6.118-7.636 12.185-11.531 18.227-1.676-.015-3.344-.015-5.012-.015 4.614-7.784 10.039-15.122 14.248-23.126-7.423-1.288-14.93-2.143-22.397-3.142-3.987 3.233-7.729 6.792-11.547 10.222-.52-.652-1.033-1.302-1.538-1.962 3.956-3.43 7.82-6.965 11.692-10.487-.337-2.59.49-5.823 3.252-6.769 2.9-.349 5.846.105 8.754.288 3.872.537 7.927.014 11.653 1.423 3.72 1.415 7.086 3.582 10.72 5.164 6.62.356 13.277-.007 19.91.174 3.673-6.626 11.264-9.586 18.304-11.26 6.236-1.499 12.64-2.279 19.068-2.226-.788-2.468-2.012-4.756-3.122-7.088-3.283.88-6.565 1.795-9.87 2.613-.376-1.348-.766-2.696-1.149-4.043C94.2 2.276 98.354.74 102.685-.003zm19.818 9.821c2.058 1.78 2.096 4.725 2.173 7.216-.123 2.378-.184 5.263-2.28 6.853-3.98.621-7.928-2.863-7.89-6.823-.168-2.839 1.653-5.595 4.247-6.739 1.156-.545 2.48-.712 3.75-.507zM17.528 36.125c4.4-1.06 8.99-.257 13.191 1.234-1.622 2.212-2.716 4.831-4.575 6.846-3.336-.477-6.88-.674-9.97.893-5.38 2.439-8.823 8.632-7.744 14.433.872 5.452 5.348 10.064 10.812 11.146 6.955 1.651 14.47-3.27 16.076-10.086 2.793-.098 5.594-.068 8.387-.045-1.11 7.39-6.252 14.039-13.276 16.84-3.773 1.75-8.065 1.81-12.136 1.394C9.585 77.41 2.14 70.298.495 61.712a27.546 27.546 0 01-.038-8.428c1.507-8.42 8.57-15.546 17.07-17.159zm117.195.56c8.363 2.469 14.707 10.39 15.242 19.014 1.316 11.911-9.251 23.61-21.433 23.277-10.023.591-19.634-6.929-21.746-16.575-1.951-7.708.865-16.303 6.948-21.475.581-.326 1.071-1.288 1.867-.962 1.193 2.34 2.226 4.763 3.397 7.118-3.696 3.529-5.616 8.935-4.086 13.903 1.707 6.686 9.236 11.343 16.046 9.662 5.18-1.06 9.473-5.316 10.56-10.434 1.553-6.21-2.289-13.078-8.241-15.403-2.273-.961-4.775-1.06-7.2-.93-1.233-2.499-2.442-5.014-3.551-7.566 4.01-.893 8.264-.946 12.197.37zM43.567 53.473a761.46 761.46 0 01-8.325 0 24.22 24.22 0 00-3.268-5.558c1.462-2.34 2.939-4.664 4.408-6.997 3.673 3.295 6.305 7.701 7.185 12.555z"/></svg>