<svg xmlns="http://www.w3.org/2000/svg" width="150" height="84"><path d="M106.573 1.613c7.581 5.434 15.188 10.843 22.783 16.27 1.963 1.325 3.196 3.782 2.61 6.13a999.914 999.914 0 01-2.454 11.659c-1.363 1.253-2.681 2.56-4.006 3.852.411 1.222.803 2.45 1.26 3.665 3.9.232 7.9.67 11.41 2.522 6.44 3.137 11.072 9.537 11.979 16.566-14.412 2.797-28.805 5.71-43.197 8.604a168.67 168.67 0 00-.705-3.241c-1.194.02-2.394.025-3.568.039 1.78-4.252 3.607-8.49 5.434-12.721a434.61 434.61 0 01-1.657-.694 902.602 902.602 0 01-5.702 13.415 460.38 460.38 0 01-4.09-.033c1.76-4.212 3.529-8.43 5.388-12.61-.391-.22-1.174-.65-1.566-.87-1.93 4.51-3.81 9.037-5.8 13.519-30.403-.045-60.799.006-91.202-.025.816-6.329 2.655-12.638 6.322-17.956 12.083-.083 24.172.122 36.249-.103-.033-.347-.111-1.048-.15-1.395-11.594-.097-23.187.012-34.774-.051 1.037-1.145 2.263-2.116 3.281-3.274-.156-1.878-.64-3.698-1.05-5.53 5.956-.026 11.92.03 17.89-.026-.197-.451-.575-1.35-.77-1.8-6.662.056-13.33.044-19.99.011-3.654.065-7.04-2.713-7.673-6.25C2.003 27.24 1.16 23.202.358 19.157c-.724-3.318 2.134-6.823 5.585-6.797 9.382-.033 18.77-.026 28.159 0 2.74-.02 5.206 2.135 5.682 4.772 1.181 5.279 2.095 10.617 3.308 15.89 4.593.058 9.212-.193 13.799.116 3.595 1.092 4.684 5.131 6.76 7.826 3.542-.913 7.09-1.851 10.575-2.97 1.703-.998 2.93-2.619 4.501-3.795 5.553-4.34 11.816-7.923 18.673-9.795 3.38 3.949 6.83 7.833 10.178 11.808.332-.283 1.004-.842 1.337-1.126-4.084-4.888-8.514-9.504-12.24-14.675-2.094-3.318-6.471-3.865-9.198-6.463-1.097-1.447 1.089-3.627 2.544-2.405a165.145 165.145 0 018.2 4.585 227.304 227.304 0 015.429-3.356c.313-4.13.261-8.27.574-12.4.816.341 1.625.714 2.349 1.241zm15.443 17.435c.476 3.84.763 7.698 1.122 11.544 1.572 1.35 3.151 2.7 4.789 3.98.698-3.871 1.644-7.71 2.25-11.601.15-3.197-3.45-4.367-5.46-6.167-.711.276-1.41.559-2.1.841-.151.349-.451 1.049-.601 1.403zm24.753 45.994c-.04 5.865-2.936 11.646-7.855 14.997-6.407 4.578-15.809 4.354-21.974-.534-2.55-1.884-4.332-4.54-5.78-7.293 2.322-.527 4.67-.971 7.013-1.434 2.414 3.91 7.144 6.418 11.815 5.614 5.03-.662 9.226-4.932 9.748-9.91 2.322-.552 4.684-.971 7.033-1.44zm-99.554 4.675C45.35 78.533 35.74 84.63 26.808 83.15c-7.268-.926-13.323-6.553-15.287-13.422 2.395-.012 4.796.007 7.197-.038 2.27 4.303 7.007 7.466 12.056 6.76 4.143-.361 7.53-3.242 9.428-6.747 2.336.025 4.671.013 7.013.013zm10.524-.019c13.153.051 26.306.006 39.459.019 0 .97.006 1.935.013 2.907-13.29-.013-26.58.025-39.876-.02.124-.97.26-1.942.404-2.906z"/></svg>