<svg xmlns="http://www.w3.org/2000/svg" width="16" height="15"><path fill="#e63619" d="M7.036 14.999c-3.88 0-7.036-3.364-7.036-7.5s3.156-7.5 7.036-7.5c1.536 0 2.995.518 4.22 1.499a.475.475 0 01.085.638.41.41 0 01-.599.091A5.874 5.874 0 007.036.91C3.627.91.855 3.866.855 7.499c0 3.633 2.772 6.588 6.18 6.588 3.409 0 6.181-2.955 6.181-6.588a6.71 6.71 0 00-.016-.473c-.017-.251.16-.47.396-.487.236-.018.44.17.457.422.012.176.018.357.018.538 0 4.136-3.156 7.5-7.035 7.5zm-.042-2.865c-.283 0-.566-.114-.782-.344l-3.76-4.009a1.864 1.864 0 010-2.514 1.598 1.598 0 012.358 0l2.184 2.327 6.16-6.565a1.597 1.597 0 012.358 0c.65.692.65 1.82 0 2.513L7.775 11.79c-.215.23-.498.344-.781.344zM3.63 5.658a.785.785 0 00-.575.253.909.909 0 000 1.226l3.76 4.008a.24.24 0 00.355 0l7.736-8.247a.908.908 0 000-1.225.779.779 0 00-1.149 0L7.536 8.306a.739.739 0 01-.542.24.74.74 0 01-.542-.24L4.206 5.911a.785.785 0 00-.575-.253z"/></svg>