<svg xmlns="http://www.w3.org/2000/svg" width="20" height="20"><path fill="#222" d="M17.11 5.78H2.89A2.894 2.894 0 010 2.89 2.894 2.894 0 012.89-.002h14.22A2.894 2.894 0 0120 2.889a2.894 2.894 0 01-2.89 2.892zM2.89 1.563a1.33 1.33 0 000 2.656h14.22a1.33 1.33 0 000-2.656zM17.11 12.89H2.89A2.894 2.894 0 010 10a2.894 2.894 0 012.89-2.892h14.22A2.894 2.894 0 0120 9.999a2.894 2.894 0 01-2.89 2.891zM2.89 8.671A1.33 1.33 0 001.563 10a1.33 1.33 0 001.329 1.328H17.11A1.33 1.33 0 0018.438 10a1.33 1.33 0 00-1.328-1.328zM17.11 20a.781.781 0 110-1.563 1.33 1.33 0 001.327-1.327 1.33 1.33 0 00-1.328-1.329H2.891a1.33 1.33 0 00-1.329 1.329 1.33 1.33 0 001.329 1.327h10.312a.782.782 0 010 1.563H2.891A2.894 2.894 0 010 17.11a2.893 2.893 0 012.89-2.89h14.22A2.893 2.893 0 0120 17.11 2.894 2.894 0 0117.11 20z"/></svg>