<svg xmlns="http://www.w3.org/2000/svg" width="23" height="40"><path fill="#e63619" d="M23 2.929V37.07A2.93 2.93 0 0120.076 40H2.924A2.93 2.93 0 010 37.07V2.929a2.93 2.93 0 012.924-2.93h17.152A2.93 2.93 0 0123 2.93zm-21.83 0v1.758h20.66V2.93c0-.969-.787-1.758-1.754-1.758H2.924A1.76 1.76 0 001.169 2.93zM21.83 37.07v-4.102H5.264a.585.585 0 010-1.172H21.83V5.86H1.169v25.937h1.755a.585.585 0 010 1.172H1.169v4.102c0 .97.787 1.758 1.755 1.758h17.152c.967 0 1.754-.788 1.754-1.758zM10.916 2.929c0-.323.262-.586.585-.586h2.339a.586.586 0 010 1.172H11.5a.585.585 0 01-.584-.586zm2.34 32.97c0 .968-.788 1.757-1.755 1.757a1.759 1.759 0 010-3.516c.967 0 1.754.789 1.754 1.758zm-1.17 0a.586.586 0 10-1.172 0 .586.586 0 001.172 0zM9.16 2.342a.586.586 0 11-.002 1.171.586.586 0 01.002-1.171z"/></svg>