<svg xmlns="http://www.w3.org/2000/svg" width="119" height="45"><path fill="#fff" d="M80.473.181c3.054-.04 6.102.22 9.145.462.399.048.844.033 1.178.301a143.989 143.989 0 018.937 6.68c3.501 2.896 6.93 5.93 9.797 9.485 1.254 1.597 2.439 3.292 3.152 5.214.251.72.489 1.47.419 2.248l.262.099c-.053.055-.155.163-.208.216-2.124-5.212-6.282-9.191-10.468-12.753-3.936-3.252-8.159-6.137-12.533-8.75-.29-.182-.606-.328-.95-.345-1.903-.2-3.805-.503-5.723-.45-.26-.026-.676.088-.54.435.333 1.182 1.175 2.123 1.836 3.13-2.369-1.148-4.782-2.24-6.96-3.73-.53-.413-1.233-.813-1.34-1.545.109-.297.451-.368.713-.46 1.073-.25 2.186-.243 3.283-.237zM24.375 8.24c.402.066.903.084 1.095.516l-.357-.3c-.533.042-1.054-.054-1.57-.167-6.094-1.072-12.193-2.1-18.29-3.146.172.731.342 1.46.48 2.198 4.958 2.164 9.897 4.41 14.583 7.14 2.881 1.74 5.857 3.524 8.043 6.15-2.766-2.028-5.823-3.603-8.868-5.151-5.07-2.592-10.242-4.968-15.434-7.295-.261-.103-.394-.362-.54-.586A714.19 714.19 0 000 1.88c8.13 2.095 16.245 4.264 24.375 6.36zM12.842 4.132c5.4.814 10.855 1.368 16.27 2.113 2.194 3.043 4.297 6.185 6.914 8.878.683.836 1.791.954 2.762 1.207 5.576 1.295 11.197 2.371 16.793 3.56 1.282 1.017 2.53 2.087 3.774 3.156-2.136-.679-4.136-1.847-6.385-2.108-5.916-1-11.826-2.025-17.742-3.027-2.57-3.224-5.148-6.443-7.718-9.67-.155-.231-.465-.222-.698-.31-4.89-1.225-9.758-2.54-14.648-3.748.224-.018.451-.036.678-.05zm81.874 5.916c1.289 2 1.59 4.476 1.49 6.813-5.022-.758-10.048-1.501-15.072-2.252-.835-.125-1.64.19-2.445.352-7.293 1.647-14.572 3.354-21.87 4.978 7.529-2.638 15.13-5.078 22.675-7.667.67-.232 1.37.044 2.042.143 4.247.745 8.49 1.508 12.737 2.25.25-2.793-1.071-5.892-3.735-7.021 1.674-.025 3.255 1.028 4.178 2.404zm-84.164 2.993c3.178 1.34 6.306 2.797 9.463 4.186-3.916 3.199-7.9 6.314-11.854 9.461 2.65-2.94 5.512-5.679 8.178-8.609-2.064-1.756-4.193-3.439-6.202-5.255.105.054.312.162.415.217zm98.644 6.446c.995 1.826 1.922 3.699 2.864 5.558-3.394-1.085-6.67-2.658-9.526-4.822-2.345-1.815-4.491-4.316-4.825-7.396 2.696 3.737 7.068 5.863 11.487 6.66zM77.21 20.885l.403-.038c6.263.823 12.522 1.672 18.782 2.505 3.81.48 7.603 1.069 11.42 1.461-1.06.058-2.12.016-3.176-.07-8.859-.496-17.715-1.002-26.572-1.5-.654-.02-1.294.139-1.933.247-7.57 1.353-15.141 2.682-22.71 4.037-.82.123-1.632.399-2.47.312 8.772-2.225 17.5-4.653 26.256-6.954zM40.645 25.42c2.964 1.01 5.946 1.965 8.906 2.987-2.7 2.446-5.362 4.938-8.08 7.363 1.017-1.748 2.162-3.413 3.224-5.133.34-.587.816-1.105 1.028-1.76-5.161-2.21-10.272-4.549-15.399-6.847 3.469 1.034 6.874 2.285 10.32 3.39zm38.52-.737c8.723.523 17.457.914 26.177 1.494-3.091 1.617-5.962 3.643-8.593 5.94-3.078 2.77-5.855 5.986-7.596 9.796-.168-.382.196-.732.286-1.09 1.68-4.488 4.572-8.46 8.03-11.717.628-.675 1.429-1.16 2.026-1.859-7.074-.438-14.153-.858-21.23-1.258-4.714.45-9.436.896-14.144 1.387.537-.282 1.141-.315 1.73-.395 3.96-.758 7.932-1.468 11.893-2.222a5.08 5.08 0 011.42-.076zm-51.936 5.48c-.574 1.21-1.052 2.465-1.575 3.698-1.364-.024-2.72-.37-4.08-.088-6.812.338-13.226 4.922-15.737 11.352.382-3.7 2.036-7.218 4.516-9.949 2.696-2.94 6.42-4.899 10.355-5.41 2.175-.258 4.398-.157 6.52.397zm79.834 1.456c4.688.028 9.19 2.532 11.937 6.34-.496.391-.847 1.078-1.445 1.27-1.932-1.596-4.153-2.864-6.585-3.483-3.233-.88-6.713-.707-9.863.418-3.998 1.41-7.386 4.485-9.157 8.378-.042.153-.122.459-.164.613a26.89 26.89 0 00-.092-.404c.552-3.903 2.666-7.559 5.766-9.956 2.712-2.133 6.163-3.302 9.603-3.176z"/></svg>