<svg xmlns="http://www.w3.org/2000/svg" width="160" height="81"><path d="M76.506 1.41c4.15-.523 8.331-.724 12.5-1.07.868-.24 1.488.554 2.034 1.088 15.55 17.818 31.138 35.606 46.695 53.417 1.005 1.152 2.097 2.24 2.953 3.524.732 1.277-.633 2.208-1.508 2.831a11.878 11.878 0 01-2.487-2.196c-6.345-7.172-12.56-14.47-18.962-21.593-2.73-.284-5.465-.535-8.157-1.05-2.86-3.04-5.514-6.28-8.293-9.395-1.03-.012-2.053-.018-3.07-.03-.832 1.327-2.054 2.54-2.091 4.214-1.37 11.326-2.574 22.682-4.044 34.001-.292 1.466-1.954 1.303-3.064 1.316-14.28-.057-28.565.062-42.844-.057-1.47.05-1.606-1.523-1.693-2.637.713-.383 1.42-.956 2.295-.849 14.006-.006 28.012-.006 42.018.007.093-.504.286-1.504.379-2.001-22.393-.013-44.791 0-67.184 0-.862-.032-1.954.018-2.493-.787-.825-1.012-.062-2.85 1.29-2.756 7.263-.15 14.54.095 21.803-.126-1.179-2.057-3.598-1.1-5.465-1.252-.49-1.478-.986-2.95-1.476-4.416-1.75.937-3.517 1.837-5.136 2.988l.298 1.398c-1.16-.007-2.314-.007-3.468.005-1.482-2.214-3.765-4.197-6.581-3.889-3.765-.188-6.631 3.317-6.978 6.89.297 2.845 1.823 5.726 4.64 6.682 3.33 1.473 7.058-.433 8.832-3.416 1.21-.012 2.413-.02 3.635-.037-.124.358-.366 1.07-.49 1.428 1.743.987 3.48 2.007 5.242 2.963.484-1.454.974-2.907 1.408-4.38 1.538.007 3.083.007 4.633.026-1.135 6.38-4.962 12.3-10.65 15.383-7.288 4.21-17.052 3.304-23.453-2.201-6.116-5.015-8.92-13.735-6.935-21.45.961-4.221 3.35-8.002 6.494-10.897a251.04 251.04 0 01-3.492-1.428c5.204-5.418 12.964-8.08 20.352-7.11.1-1.095.087-2.87 1.662-2.724 11.612-.095 23.23.044 34.836-.063 3.939-3.108 7.66-6.582 12.002-9.16 6.513-4.129 14.285-7.193 22.076-5.827 2.09.29 3.877 1.56 5.006 3.348 1.03.005 2.066.012 3.108.012a5063.944 5063.944 0 00-14.18-16.227c-4.007.302-8.008.843-12.034.705-.204-.422-.626-1.27-.837-1.693.217-.377.657-1.132.874-1.51.218-.378 0 0 0 0zm24.018 21.498c1.24 1.932 3.728.95 5.608 1.127-1.216-1.97-3.74-.95-5.608-1.127-1.867-.176 0 0 0 0zm3.56 4.046c2.234 2.46 4.355 5.015 6.576 7.48 1.68.202 3.368.416 5.055.636-2.301-2.75-4.708-5.398-7.047-8.11a387.34 387.34 0 00-4.583-.006c-1.52.006 0 0 0 0zm-21.523 8.965c1.662 7.11 2.915 14.315 4.466 21.456.83-.02 1.68-.044 2.53-.063.937-8.022 1.83-16.044 2.823-24.06-3.164 1.302-6.563 1.73-9.82 2.667-3.256.938 0 0 0 0zm-8.988 1.901c1.494 6.486 2.729 13.036 4.174 19.535h2.643c-1.384-6.744-2.68-13.502-4.169-20.22-.893.225-1.774.458-2.648.685-.875.226 0 0 0 0zm-60.125 6.4a378.56 378.56 0 012.952 5.16 68.612 68.612 0 013.586-.932c-.006-2.039 0-4.071-.05-6.11-2.214.435-4.429.937-6.488 1.882-2.06.943 0 0 0 0zm8.324-1.875c-.018 2.032-.018 4.064-.018 6.096 1.234.265 2.462.598 3.69.918.95-1.735 1.936-3.447 2.872-5.196-2.09-.913-4.317-1.403-6.544-1.818-2.226-.415 0 0 0 0zM7.171 49.988c1.674 1 3.374 1.976 5.036 3.014a85.48 85.48 0 012.699-2.737c-1.03-1.68-1.98-3.41-2.96-5.115a20.065 20.065 0 00-4.775 4.838c-1.31 1.876 0 0 0 0zm19.774.308a58.325 58.325 0 012.612 2.663c1.712-.983 3.424-1.97 5.123-2.996-1.383-1.806-3.002-3.404-4.726-4.863-1.055 1.705-2.041 3.447-3.009 5.196-.967 1.75 0 0 0 0zm-22.373 7.84c1.941.019 3.883.013 5.83.038.273-1.233.59-2.454.912-3.674-1.693-.97-3.374-1.97-5.055-2.964-.962 2.083-1.514 4.31-1.687 6.6-.174 2.29 0 0 0 0zm.062 1.843c.062 2.303.651 4.53 1.588 6.62 1.712-.95 3.393-1.945 5.098-2.914-.322-1.233-.65-2.466-.93-3.706-1.923.012-3.84.007-5.756 0-1.917-.006 0 0 0 0zm2.48 8.293c1.446 1.75 3.015 3.398 4.802 4.794a300.578 300.578 0 002.94-5.19 54.998 54.998 0 01-2.611-2.65 120.736 120.736 0 00-5.13 3.046c-1.681 1.057 0 0 0 0zm22.437-3.07a87.762 87.762 0 01-2.612 2.667c.974 1.75 1.96 3.487 2.996 5.204 1.7-1.422 3.406-2.9 4.615-4.795-1.57-1.188-3.312-2.088-5-3.076-1.687-.988 0 0 0 0zm-13.132 3.561c-.999 1.75-1.997 3.492-2.921 5.285 2.09.78 4.236 1.41 6.457 1.73.025-2.007.018-4.007.037-6.009a52.44 52.44 0 01-3.573-1.006c-1.178-.384 0 0 0 0zm5.353 7.015c2.24-.308 4.423-.931 6.538-1.749-.937-1.793-1.941-3.542-2.959-5.285-1.184.409-2.394.742-3.604 1.05.013 1.995.007 3.99.025 5.984zm99.451-64.013c1.96 2.134 1.973 5.323 1.675 8.054-.199 2.202-1.625 5.015-4.175 4.801-3.759-.032-8.305-1.642-9.57-5.607-.925-3.429 2.046-6.342 4.999-7.367 2.22-.616 5.123-1.643 7.071.12zm21.102 21.412c5.943.667 11.5 3.687 15.6 8.065-.67.642-1.327 1.29-1.984 1.945-4.361-4.499-10.396-7.462-16.686-7.324-4.634-.163-9.118 1.44-13.008 3.895-.607-.743-1.215-1.48-1.81-2.215 5.253-3.429 11.636-5.297 17.888-4.366zm-14.72 8.11c5.069-3.184 11.427-4.348 17.189-2.586 8.759 2.315 15.334 11.08 15.19 20.26.2 8.33-5.054 16.427-12.634 19.61-8.753 3.97-19.961.819-25.333-7.266-5.459-7.588-4.87-18.699 1.005-25.878.949 1.516 3.554 2.655 2.642 4.725 2.91 1.283 4.925 3.762 6.91 6.172-1.662 4.07 1.08 9.13 5.41 9.734 4.627.969 9.155-3.851 7.927-8.482-.645-3.228-3.63-5.386-6.743-5.72-.62.17-1.228.334-1.836.497a679.282 679.282 0 00-2.649-3.013c1.179-.314 2.357-.635 3.56-.893-.005-2.039 0-4.071-.024-6.103-2.24.428-4.485.893-6.556 1.88.874 1.517 1.767 3.033 2.592 4.588-2.282-2.448-4.379-5.072-6.65-7.525-2.27-2.454 0 0 0 0zm12.425 1.057c-.05 2.038-.043 4.07-.043 6.11 1.222.27 2.438.591 3.66.904.924-1.742 1.916-3.447 2.909-5.146-2.078-.943-4.299-1.447-6.526-1.868-2.226-.422 0 0 0 0zm5.074 7.927c.918.888 1.818 1.8 2.71 2.73 1.65-1.05 3.35-2.019 5.038-3.013-1.334-1.875-2.916-3.567-4.851-4.806-.93 1.717-1.88 3.429-2.897 5.09-1.017 1.66 0 0 0 0zM122.65 58.15c2.003.018 4.007.018 6.017-.032.223-1.17.49-2.334.899-3.454-1.631-1.127-3.35-2.108-5.055-3.108-1.011 2.07-1.588 4.31-1.861 6.594-.273 2.284 0 0 0 0zm25.996-3.612c.366 1.202.689 2.416.993 3.637 1.978-.025 3.957-.007 5.942-.07-.36-2.265-.918-4.498-1.886-6.58a173.886 173.886 0 01-5.049 3.013c-1.693.975 0 0 0 0zm-25.996 5.454c.223 2.291.924 4.487 1.749 6.62 1.73-.97 3.455-1.963 5.16-2.982-.396-1.183-.675-2.398-.905-3.618a271.05 271.05 0 00-6.004-.02c-1.997.013 0 0 0 0zm26.002 3.7c1.644.88 3.201 1.913 4.87 2.75 1.5-1.63 1.525-4.315 2.047-6.443-1.98-.012-3.952-.007-5.924-.025a109.584 109.584 0 01-.993 3.719c-.347 1.233 0 0 0 0zm-23.31 4.569c1.383 1.799 2.952 3.466 4.826 4.756.973-1.724 1.935-3.447 2.909-5.171a54.939 54.939 0 01-2.612-2.643 120.838 120.838 0 00-5.123 3.058c-1.681 1.056 0 0 0 0zm19.793-.384c.974 1.73 1.948 3.467 2.984 5.171 1.774-1.396 3.356-3.032 4.776-4.794-1.68-1.025-3.387-2.013-5.055-3.045a83.9 83.9 0 01-2.705 2.668c-.924.862 0 0 0 0zm-10.458.874c-.924 1.755-2.332 3.347-2.748 5.323 1.991.906 4.144 1.353 6.29 1.724.025-2.007.012-4.008.037-6.008a42.695 42.695 0 01-3.579-1.04c-1.172-.401 0 0 0 0zm5.328 7.01c2.24-.277 4.398-.932 6.513-1.719-.942-1.774-1.941-3.516-2.915-5.271a64 64 0 01-3.629 1.006c.019 1.995.013 3.99.031 5.984zm-20.134-34.008c.614.705 1.234 1.403 1.86 2.108-3.554 4.272-5.433 9.721-5.687 15.276-.676-.005-2.022-.018-2.692-.024-.025-6.343 2.363-12.628 6.519-17.36z"/></svg>