<svg xmlns="http://www.w3.org/2000/svg" width="151" height="88"><path d="M107.051 2.762a2.325 2.325 0 01-.025-.052c-.9-1.885 2.076-2.37 3.396-2.711 5.605 5.628 10.936 11.546 16.408 17.315 1.45 1.413 2.148 3.34 3.057 5.105 2.07 4.286 4.202 8.548 6.248 12.858.94 1.631.784 3.692-.212 5.269-5.926.374-11.884.226-17.826.407 4.398 8.266 8.803 16.533 13.201 24.808 1.16 1.718-.266 3.31-1.78 4.068-.995-.742-1.998-1.53-2.516-2.686-4.249-8.056-8.56-16.09-12.801-24.153-8.208-.016-16.415.015-24.631-.016-1.411-.023-2.822.078-4.194.421.431.196 1.286.602 1.717.804 8.443.102 16.901-.038 25.352.055-.823.68-1.568 1.492-2.509 2.014-5.566.203-11.147-.008-16.713.094l.031 1.21c5.072.024 10.152-.015 15.224.015-11.657 10.43-24.772 19.057-37.173 28.565-6.146-.07-12.308.172-18.446-.117-3.253-.46-4.672-3.731-5.323-6.55-8.78-.195-17.568.094-26.355-.086-2.235.008-2.87-3.262-.933-4.184 7.102-5.191 14.275-10.305 21.416-15.45-.65-2.63-3.34-3.427-5.4-4.652C25.68 39.14 15.05 33.263 4.505 27.228c.063-1.397.102-2.787.29-4.169 6.013-.578 12.112-.25 18.156-.476 3.48-.281 6.985 1.187 9.14 3.934 1.569 1.695 2.705 4.091 4.986 4.934 3.63.453 7.299-.062 10.944-.03 3.496-.227 7.432.53 10.442-1.733 4.586-3.436 9.023-7.081 13.554-10.586 1.137-.93 2.61-1.578 4.108-1.187 5.581 1.233 11.069 2.856 16.611 4.23 3.465.415 6.977.102 10.465.172-1.45-2.13-1.944-5.674-5.017-5.994-2.163-.673-4.829-.774-5.981-3.045.313-.57.949-1.719 1.262-2.288 3.387.164 6.805 1.085 9.877 2.482 1.655 2.335 2.627 5.067 4.202 7.456 2.187-1.694 4.234-3.568 6.295-5.402-2.242-4.262-4.656-8.44-6.789-12.764zm15.993 22.912c1.285 4.771 5.879 7.503 9.783 10.016-2.25-5.245-4.9-10.312-7.338-15.48-1.395 1.468-2.947 3.271-2.445 5.464.501 2.194 0 0 0 0zM46.18 65.012c-1.098-3.552-2.172-7.12-3.348-10.64-4.883 3.552-9.861 6.979-14.659 10.64 6.005.016 12.01.023 18.007 0zm97.16-13.397c6.772 5.785 9.054 16.09 5.197 24.139-3.81 8.9-14.424 14.044-23.832 11.64-8.991-1.967-15.945-10.492-16.023-19.658-.29-6.604 3.026-13.006 8.153-17.096 1.246 2.334 2.485 4.668 3.77 6.987-3.99 3.911-5.463 10.352-2.704 15.356 2.846 6.034 10.787 8.938 16.862 6.073 6.342-2.576 9.697-10.649 6.789-16.885-2.328-5.778-8.898-8.94-14.95-7.87-1.238-2.31-2.54-4.59-3.535-7.018 6.938-2.022 14.887-.608 20.272 4.332zm-124.402-5.12c6.225-.781 12.441 1.702 17.043 5.793-2.124 1.616-4.312 3.146-6.483 4.707-3.238-2.248-7.385-3.56-11.296-2.436-6.985 1.53-11.697 9.47-9.423 16.293 1.709 6.26 8.63 10.46 15.004 9.063 4.837-.875 8.662-4.708 10.16-9.283 2.626-.038 5.252-.03 7.886-.007C40.285 81.18 29.663 89.212 19.033 87.83 8.66 86.956.085 77.362.406 66.995c-.117-10.21 8.35-19.509 18.532-20.5zM99.393 57.94c-.18 2.958-.322 5.917-.604 8.867-3.37 3.092-6.656 6.27-10.019 9.369-4.664-.047-9.328.015-14-.04 8.246-6.018 16.407-12.147 24.623-18.196zm-57.556 5.714c-2.971 0-5.99.327-8.905-.375 2.21-1.983 4.672-3.646 7.078-5.371a34.262 34.262 0 011.827 5.746z"/></svg>