<svg xmlns="http://www.w3.org/2000/svg" width="151" height="88"><path d="M98.568.662c1.273-.518 2.277.669 2.69 1.726 10.129 21.526 20.12 43.117 30.329 64.606-1.258.612-2.516 1.215-3.767 1.833-4.808-9.965-9.485-20.001-14.084-30.06a122.884 122.884 0 00-1.64 3.272c-8.156-.007-16.304.007-24.46-.007l.008 1.15c8.025.044 16.05-.08 24.068.072-.535.539-.622 1.782-1.562 1.754-5.292.173-10.591.007-15.891.072l.145 1.23c5.249-.05 10.505-.022 15.76-.022-3.506 7.175-6.665 14.523-10.273 21.64-1.598.174-3.203.087-4.793.101-.947 2.064-1.692 4.228-2.827 6.199-.911.524-2.068.214-3.066.33-10.917-.03-21.827-.03-32.744 0a240.28 240.28 0 01-.065-3.157c11.214-.02 22.435-.028 33.648 0 .477-1.128.962-2.25 1.432-3.379H4.638V64.09h48.187c-.76-7.922-5.386-15.443-12.392-19.376-8.48-5.068-20.005-4.227-27.69 1.963-2.264 1.733-4.122 3.926-5.712 6.269-2.184.022-4.374.015-6.55.015 0-1.69.007-3.372.007-5.062 1.858.007 3.709.015 5.567.015 3.824-3.35 7.345-7.312 12.153-9.289 4.157-1.827 8.77-1.92 13.21-2.495 3.715-.497 7.468-.762 11.184-1.287 4.439 3.804 10.758 3.774 16.281 3.329 5.632-.77 11.9-2.265 15.32-7.204 6.175-3.603 11.807-8.053 17.974-11.676 3.26-1.906 6.89-3.222 10.686-3.552-1.656-3.53-3.312-7.067-4.946-10.605-3.253.849-6.514 1.682-9.745 2.574-.39-1.351-.76-2.703-1.1-4.062 3.847-.927 7.643-2.085 11.496-2.984zM121.046 11.8c2.335 1.985 2.27 5.421 2.22 8.225-.275 1.977-.37 4.53-2.285 5.701-3.514.619-7.194-2.278-7.62-5.795-.586-3.112 1.228-6.427 4.171-7.62a6.383 6.383 0 013.514-.51zM38.3 47.136c5.69 2.991 9.652 8.642 11.047 14.84-2.776.029-5.552.014-8.329.014-1.937-5.464-7.338-9.684-13.295-9.346-5.77-.065-10.773 4.134-12.696 9.375-2.769-.043-5.53-.014-8.285-.05 1.258-5.37 4.301-10.425 8.95-13.545 6.492-4.61 15.624-5.076 22.608-1.288zm98.998-.848c6.16 2.603 10.896 8.203 12.472 14.66 1.865 7.268-.535 15.371-5.972 20.54-5.66 5.58-14.568 7.535-22.073 4.875-7.121-2.365-12.724-8.714-14.127-16.048-1.865-8.152 1.88-17.104 8.741-21.841 1.12 2.487 2.263 4.96 3.434 7.419-2.422 2.56-4.468 5.795-4.432 9.426-.535 5.88 3.55 11.712 9.182 13.459 4.606 1.553 10.057.417 13.527-3.013 4.136-3.803 5.51-10.31 2.95-15.356-2.393-5.379-8.488-8.507-14.293-7.73-1.114-2.53-2.328-5.018-3.449-7.549 4.678-.827 9.637-.776 14.04 1.158zM15.034 70.078c1.902 5.27 6.948 9.42 12.718 9.376 5.943.294 11.343-3.883 13.266-9.354 2.777.007 5.56-.015 8.344.022-1.57 7.102-6.645 13.466-13.592 15.975-7.657 3.041-16.955 1.121-22.796-4.645-3.203-3.026-5.199-7.095-6.24-11.323 2.762-.044 5.531-.015 8.3-.051z"/></svg>