<svg xmlns="http://www.w3.org/2000/svg" width="40" height="40"><path fill="#e63619" d="M30.625 25.775v6.608a2.933 2.933 0 01-2.93 2.929H10.204l-4.516 4.516a.587.587 0 01-1-.414v-4.102H2.93A2.933 2.933 0 010 32.382V15.196a2.933 2.933 0 012.93-2.93h4.687a.586.586 0 010 1.172H2.93a1.76 1.76 0 00-1.758 1.758v17.188c0 .969.788 1.757 1.758 1.757h2.343c.324 0 .586.262.586.586V38l3.687-3.687c.11-.11.26-.172.415-.172h17.734a1.76 1.76 0 001.758-1.757v-6.608a.586.586 0 111.172 0zM27.03 10.937a.586.586 0 110 1.172.586.586 0 010-1.172zm-2.344 0a.586.586 0 110 1.172.586.586 0 010-1.172zm-2.343 0a.586.586 0 110 1.172.586.586 0 010-1.172zM40 2.93v17.187a2.933 2.933 0 01-2.93 2.93h-1.758v4.102a.585.585 0 01-1 .415l-4.516-4.517H12.305a2.933 2.933 0 01-2.93-2.93V2.93A2.933 2.933 0 0112.305 0H37.07A2.933 2.933 0 0140 2.93zm-1.172 17.187V2.93a1.76 1.76 0 00-1.758-1.758H12.305a1.76 1.76 0 00-1.758 1.758v17.187c0 .97.788 1.758 1.758 1.758h17.734c.155 0 .304.062.414.172l3.687 3.688V22.46c0-.323.263-.586.586-.586h2.344a1.76 1.76 0 001.758-1.758z"/></svg>