<svg xmlns="http://www.w3.org/2000/svg" width="20" height="20"><path fill="#fff" d="M16.875 9.218h-2.969a3.128 3.128 0 01-3.125-3.125V3.124A3.129 3.129 0 0113.906 0h2.969A3.129 3.129 0 0120 3.124v2.969a3.128 3.128 0 01-3.125 3.125zm-2.969-7.656c-.861 0-1.562.7-1.562 1.562v2.969c0 .861.7 1.562 1.562 1.562h2.969c.861 0 1.562-.7 1.562-1.562V3.124c0-.861-.7-1.562-1.562-1.562zM6.094 9.218H3.125A3.128 3.128 0 010 6.093V3.124A3.129 3.129 0 013.125 0h2.969a3.129 3.129 0 013.125 3.125v2.969a3.128 3.128 0 01-3.125 3.125zM3.125 1.562c-.862 0-1.563.7-1.563 1.562v2.969c0 .861.701 1.562 1.563 1.562h2.969c.861 0 1.562-.7 1.562-1.562V3.124c0-.861-.7-1.562-1.562-1.562zm2.969 18.437H3.125A3.129 3.129 0 010 16.874v-2.969a3.128 3.128 0 013.125-3.125h2.969a3.128 3.128 0 013.125 3.125v2.969a3.129 3.129 0 01-3.125 3.125zm-2.969-7.656c-.862 0-1.563.7-1.563 1.562v2.969c0 .861.701 1.562 1.563 1.562h2.969c.861 0 1.562-.7 1.562-1.562v-2.969c0-.861-.7-1.562-1.562-1.562zm13.75 7.656h-2.969a3.129 3.129 0 01-3.125-3.125v-2.969a3.128 3.128 0 013.125-3.125h2.969c1.242 0 2.366.736 2.864 1.874a.781.781 0 01-1.431.626 1.563 1.563 0 00-1.433-.937h-2.969c-.861 0-1.562.7-1.562 1.562v2.969c0 .861.7 1.562 1.562 1.562h2.969c.861 0 1.562-.7 1.562-1.562a.781.781 0 011.563 0 3.129 3.129 0 01-3.125 3.125z"/></svg>