<svg xmlns="http://www.w3.org/2000/svg" width="25" height="26"><path fill="#fff" d="M22.137 19.237c.513.527.782 1.156.782 1.81 0 .648-.264 1.282-.766 1.826-.219.237-.442.464-.66.68-.32.322-.624.622-.888.955-.005.01-.015.016-.02.026-.77.87-1.755 1.31-2.927 1.31-.101 0-.213-.006-.32-.011-1.74-.117-3.297-.797-4.464-1.372-3.053-1.536-5.727-3.715-7.949-6.475-1.83-2.29-3.059-4.426-3.88-6.732-.335-.939-.771-2.375-.65-3.915a3.928 3.928 0 011.101-2.454l1.725-1.81.01-.01c.507-.507 1.106-.776 1.725-.776s1.207.269 1.7.776c.329.317.648.654.953.981.152.17.314.337.472.502l1.384 1.44c1.066 1.108 1.066 2.543 0 3.651-.142.148-.284.301-.426.449-.375.396-.76.807-1.177 1.203.31.712.736 1.413 1.37 2.248 1.309 1.672 2.674 2.965 4.175 3.957.147.094.32.184.502.28.127.067.259.136.39.21l1.604-1.662c.512-.532 1.11-.812 1.735-.812.629 0 1.222.285 1.714.818zm-.974.997l-2.795-2.907-.01-.01c-.157-.18-.416-.386-.73-.386-.32 0-.594.217-.766.396l-1.735 1.804c-.086.09-.35.365-.771.365-.168 0-.33-.042-.503-.133-.02-.01-.04-.026-.06-.036a6.139 6.139 0 00-.503-.28 6.697 6.697 0 01-.624-.354c-1.628-1.07-3.104-2.469-4.504-4.263l-.005-.006c-.771-1.018-1.279-1.872-1.639-2.78l-.015-.047c-.091-.3-.173-.744.264-1.198.005-.01.015-.016.025-.026.441-.412.847-.834 1.273-1.288.148-.147.29-.3.437-.453.537-.56.537-1.077 0-1.636l-1.385-1.44c-.163-.175-.325-.343-.482-.512a26.75 26.75 0 00-.913-.945l-.015-.016c-.163-.169-.422-.369-.741-.369-.259 0-.523.131-.771.375l-1.73 1.798c-.421.438-.65.95-.7 1.568-.076.966.096 1.99.568 3.302.766 2.154 1.923 4.159 3.653 6.327 2.095 2.602 4.616 4.653 7.487 6.1 1.05.522 2.45 1.133 3.957 1.235.076.005.157.005.233.005.792 0 1.395-.27 1.908-.839.314-.386.649-.728.979-1.056.218-.221.42-.422.619-.643-.006.005-.006 0 0 0 .517-.56.517-1.114-.006-1.652zm-8.37-14.267a.692.692 0 01.792-.58 7.731 7.731 0 014.235 2.285 8.247 8.247 0 012.197 4.405c.06.39-.188.76-.563.823-.04.005-.076.01-.117.01a.689.689 0 01-.675-.591 6.821 6.821 0 00-1.816-3.64c-.963-1.003-2.17-1.657-3.5-1.889-.375-.064-.619-.438-.553-.823zm11.013 6.716c-.04.006-.076.012-.116.012a.69.69 0 01-.675-.592 12.13 12.13 0 00-3.231-6.485c-1.715-1.777-3.87-2.943-6.235-3.36a.714.714 0 01-.563-.823c.066-.385.416-.65.786-.58 2.648.469 5.058 1.766 6.975 3.761a13.578 13.578 0 013.617 7.255c.066.385-.187.755-.558.812z"/></svg>