<svg xmlns="http://www.w3.org/2000/svg" width="77" height="69"><path fill="#f8f8f8" d="M34.078.687c0 14.373-.077 23.007-.234 25.898-.47 14.532-2.754 25.137-6.856 31.816-4.101 6.68-11.268 10.02-21.504 10.02L2.086 56.468c5.625 0 9.433-1.895 11.426-5.684 1.992-3.79 2.988-9.629 2.988-17.52H.445V.688zm42.68 0c0 14.373-.077 23.007-.235 25.898-.468 14.532-2.754 25.137-6.855 31.816-4.102 6.68-11.268 10.02-21.504 10.02l-3.398-11.953c5.625 0 9.433-1.895 11.425-5.684 1.992-3.79 2.989-9.629 2.989-17.52H43.125V.688z"/></svg>