<svg xmlns="http://www.w3.org/2000/svg" width="43" height="48"><defs><clipPath id="c"><path fill="#fff" d="M20.664 7c5.708-.359 13.862 13.756 9.79 20.459-3.045 5.01-12.959 6.497-17.132 1.297-4.148-5.167.016-13.49 2.447-16.865 1.915-2.66 3.956-4.833 4.895-4.892z"/></clipPath><filter id="a" width="71" height="79" x="-14" y="-18" filterUnits="userSpaceOnUse"><feOffset dy="4" in="SourceGraphic" result="FeOffset1402Out"/><feGaussianBlur in="FeOffset1402Out" result="FeGaussianBlur1403Out" stdDeviation="5.76 5.76"/></filter><mask id="b" width="2.06" height="2.05" x="-1.03" y="-1.02"><path fill="#fff" d="M10.4 6.4h22.2v26.2H10.4z"/><path d="M20.664 7c5.708-.359 13.862 13.756 9.79 20.459-3.045 5.01-12.959 6.497-17.132 1.297-4.148-5.167.016-13.49 2.447-16.865 1.915-2.66 3.956-4.833 4.895-4.892z"/></mask></defs><g filter="url(#a)"><path fill="none" stroke="#000" stroke-opacity=".15" stroke-width="1.2" d="M20.664 7c5.708-.359 13.862 13.756 9.79 20.459-3.045 5.01-12.959 6.497-17.132 1.297-4.148-5.167.016-13.49 2.447-16.865 1.915-2.66 3.956-4.833 4.895-4.892z" mask="url(&quot;#b&quot;)"/><path fill-opacity=".15" d="M20.664 7c5.708-.359 13.862 13.756 9.79 20.459-3.045 5.01-12.959 6.497-17.132 1.297-4.148-5.167.016-13.49 2.447-16.865 1.915-2.66 3.956-4.833 4.895-4.892z"/></g><path fill="#fff" d="M20.664 7c5.708-.359 13.862 13.756 9.79 20.459-3.045 5.01-12.959 6.497-17.132 1.297-4.148-5.167.016-13.49 2.447-16.865 1.915-2.66 3.956-4.833 4.895-4.892z"/><path fill="none" stroke="#ddd" stroke-linecap="round" stroke-linejoin="round" stroke-miterlimit="20" stroke-width="2" d="M20.664 7c5.708-.359 13.862 13.756 9.79 20.459-3.045 5.01-12.959 6.497-17.132 1.297-4.148-5.167.016-13.49 2.447-16.865 1.915-2.66 3.956-4.833 4.895-4.892z" clip-path="url(&quot;#c&quot;)"/></svg>