<svg xmlns="http://www.w3.org/2000/svg" width="468" height="180"><path fill="#f8f8f8" d="M164.429 1.124c1.03.371 2.376.653 2.805 1.847-.42 2.93-3.182 4.527-5.267 6.178-8.57 5.97-18.06 10.339-27.377 14.93 2.6-4.027 5.912-7.797 7.224-12.528.533-1.386-1.106-1.845-2.127-1.739-7.541-.213-15.022 1.006-22.503 1.8-1.356.07-2.6.653-3.74 1.378-17.201 10.46-33.81 22.009-49.287 35.021-16.464 14.26-32.815 30.184-41.172 51.047-.206-.213-.61-.645-.815-.865.258-.097.772-.301 1.03-.398-.275-3.11.66-6.118 1.647-8.996 2.806-7.691 7.464-14.48 12.396-20.87 11.273-14.232 24.76-26.37 38.53-37.962C87.14 20.582 98.884 11.682 110.92 3.234c1.313-1.077 3.063-1.014 4.632-1.21C127.521 1.062 139.507.021 151.517.18c4.316-.025 8.691-.053 12.912.945zm303.572 5.854a2971.673 2971.673 0 00-13.83 22.88c-.575.904-1.098 1.936-2.128 2.351-20.418 9.315-40.759 18.822-60.697 29.195-11.976 6.198-23.996 12.5-34.874 20.614 8.596-10.505 20.298-17.648 31.631-24.613 18.428-10.92 37.851-19.916 57.352-28.577.54-2.948 1.209-5.87 1.887-8.794-23.979 4.185-47.966 8.299-71.928 12.59-2.032.45-4.083.837-6.176.671-.352.3-1.056.9-1.407 1.201.755-1.732 2.728-1.801 4.307-2.066C404.112 24.043 436.026 15.364 468 6.978zm-47.837 9.216c-19.235 4.838-38.375 10.1-57.61 15-.917.353-2.136.319-2.745 1.244-10.106 12.916-20.247 25.797-30.352 38.703-23.267 4.01-46.508 8.115-69.774 12.113-8.845 1.044-16.712 5.721-25.111 8.44 4.89-4.282 9.797-8.563 14.842-12.634 22.005-4.758 44.113-9.066 66.041-14.248 3.818-1.016 8.177-1.483 10.862-4.829 10.294-10.781 18.565-23.359 27.195-35.535 21.294-2.983 42.75-5.199 63.984-8.456.891.062 1.784.131 2.668.202zm-308.23 13.851C101.458 34.567 96.26 46.97 97.246 58.147c16.704-2.968 33.39-6.022 50.094-9.006 2.642-.397 5.396-1.5 8.03-.573 29.675 10.365 59.564 20.13 89.17 30.688-28.696-6.499-57.325-13.332-86.005-19.926-3.166-.645-6.331-1.908-9.617-1.405-19.758 3.002-39.524 5.977-59.273 9.015-.395-9.357.79-19.264 5.86-27.272 3.628-5.509 9.849-9.72 16.429-9.623zm316.2 20.73c-7.902 7.274-16.275 14.011-24.39 21.038 10.483 11.725 21.738 22.688 32.162 34.457-15.554-12.598-31.22-25.064-46.619-37.866 12.414-5.56 24.717-11.396 37.216-16.754.403-.222 1.218-.655 1.63-.875zm-344.4.018c-1.313 12.325-9.755 22.335-18.977 29.601-11.23 8.66-24.115 14.955-37.465 19.3 3.706-7.444 7.353-14.94 11.264-22.248 17.382-3.188 34.574-11.697 45.178-26.653zm183.876 60.084c-3.295.346-6.486-.76-9.712-1.253-29.769-5.42-59.547-10.745-89.317-16.155-2.513-.432-5.027-1.069-7.6-.988-34.832 1.994-69.663 4.016-104.502 6.002-4.153.344-8.322.513-12.492.284C59 97.194 73.92 94.839 88.9 92.913c24.622-3.329 49.235-6.728 73.866-10.02.394.035 1.192.115 1.587.15 34.436 9.207 68.761 18.927 103.258 27.834zm81.132-23.253c-20.16 9.2-40.262 18.557-60.56 27.404.833 2.621 2.703 4.697 4.041 7.045 4.178 6.887 8.682 13.55 12.68 20.544-10.69-9.704-21.156-19.68-31.777-29.47 11.642-4.087 23.37-7.91 35.029-11.954 13.554-4.422 26.946-9.428 40.587-13.57zM162.25 98.546c15.58 3.019 31.202 5.86 46.773 8.9 2.317.316 4.693.45 6.803 1.579-18.513-1.97-37.087-3.753-55.626-5.553a15423.01 15423.01 0 00-83.492 5.031c2.35 2.798 5.499 4.74 7.97 7.442 13.598 13.04 24.974 28.931 31.58 46.897.35 1.43 1.784 2.833 1.123 4.36-6.846-15.246-17.767-28.118-29.872-39.205-10.347-9.192-21.637-17.304-33.793-23.775 34.29-2.321 68.641-3.886 102.949-5.978 1.87-.148 3.749-.08 5.585.302zm224.309 20.039c15.477 2.048 30.122 9.888 40.725 21.657 9.755 10.93 16.257 25.01 17.759 39.815-9.875-25.734-35.097-44.08-61.89-45.43-5.345-1.13-10.68.256-16.043.353-2.058-4.935-3.938-9.96-6.194-14.805 8.347-2.216 17.09-2.623 25.643-1.59zM84.712 138.714c12.19 9.596 20.504 24.226 22.675 39.851-.095.407-.275 1.21-.36 1.617-.164-.62-.481-1.846-.644-2.456-6.966-15.58-20.29-27.888-36.015-33.53-12.389-4.502-26.072-5.2-38.786-1.677-9.566 2.48-18.3 7.556-25.9 13.94-2.351-.768-3.733-3.514-5.68-5.078 10.801-15.246 28.508-25.264 46.945-25.38 13.529-.502 27.101 4.175 37.765 12.713z"/></svg>