<svg xmlns="http://www.w3.org/2000/svg" width="92" height="35"><path fill="#222" d="M62.215.175c2.36-.03 4.717.172 7.07.359.308.038.652.025.91.235a111.315 111.315 0 016.91 5.2c2.706 2.254 5.358 4.616 7.574 7.384.97 1.243 1.885 2.563 2.437 4.06.194.559.377 1.143.323 1.749.051.018.152.058.203.077l-.16.168c-1.643-4.058-4.858-7.154-8.094-9.929-3.042-2.53-6.308-4.776-9.689-6.811-.224-.142-.469-.255-.735-.268-1.47-.154-2.941-.392-4.424-.35-.2-.02-.523.068-.418.338.258.92.909 1.654 1.42 2.436C63.71 3.93 61.845 3.08 60.16 1.92c-.41-.321-.952-.632-1.035-1.202.084-.232.349-.287.551-.359.83-.194 1.69-.188 2.539-.184zm-43.37 6.273c.31.051.698.065.846.401a53.033 53.033 0 01-.276-.233c-.412.032-.815-.043-1.214-.13-4.71-.834-9.426-1.636-14.14-2.45.133.57.265 1.138.371 1.712 3.833 1.684 7.652 3.433 11.274 5.557 2.228 1.355 4.528 2.744 6.218 4.788-2.138-1.578-4.501-2.804-6.855-4.01-3.92-2.017-7.918-3.866-11.932-5.678-.203-.081-.305-.282-.418-.457a545.104 545.104 0 00-2.72-4.451c6.286 1.632 12.56 3.32 18.846 4.95zM9.928 3.25c4.174.633 8.392 1.064 12.578 1.644 1.697 2.369 3.323 4.815 5.346 6.912.528.651 1.385.742 2.135.94 4.311 1.007 8.657 1.846 12.983 2.77a95.508 95.508 0 012.918 2.458c-1.652-.529-3.198-1.439-4.937-1.641-4.574-.778-9.142-1.577-13.716-2.356-1.987-2.511-3.98-5.016-5.967-7.529-.12-.18-.359-.173-.54-.242-3.78-.953-7.543-1.975-11.324-2.917.173-.014.349-.028.524-.04zm63.298 4.605c.996 1.557 1.23 3.484 1.151 5.304-3.882-.59-7.767-1.169-11.651-1.753-.646-.098-1.269.148-1.891.273-5.638 1.283-11.266 2.612-16.907 3.876 5.82-2.054 11.696-3.953 17.53-5.969.517-.181 1.058.034 1.578.111 3.283.58 6.564 1.174 9.847 1.752.194-2.174-.828-4.586-2.887-5.466 1.293-.019 2.516.8 3.23 1.872zm-65.069 2.33c2.458 1.042 4.876 2.177 7.316 3.259-3.027 2.49-6.106 4.914-9.164 7.365 2.05-2.29 4.262-4.422 6.323-6.702-1.596-1.367-3.242-2.678-4.795-4.092l.32.17zm76.264 5.017c.768 1.422 1.485 2.88 2.214 4.327-2.624-.844-5.157-2.069-7.365-3.753-1.813-1.413-3.472-3.36-3.73-5.758 2.084 2.91 5.464 4.564 8.88 5.184zm-24.73 1.09c.078-.007.235-.024.313-.03 4.841.64 9.68 1.301 14.52 1.95 2.945.374 5.878.832 8.829 1.137-.82.046-1.64.012-2.456-.054-6.848-.387-13.696-.78-20.543-1.168-.506-.015-1 .108-1.494.192-5.852 1.052-11.706 2.088-17.558 3.142-.634.096-1.261.311-1.909.244 6.781-1.733 13.529-3.623 20.299-5.414zm-28.268 3.53c2.292.785 4.597 1.53 6.886 2.325-2.088 1.904-4.146 3.845-6.247 5.731.786-1.36 1.671-2.656 2.492-3.996.264-.456.631-.86.795-1.37-3.99-1.72-7.942-3.541-11.905-5.33 2.681.806 5.314 1.78 7.979 2.64zm29.78-.574c6.744.407 13.497.711 20.238 1.163-2.39 1.259-4.61 2.836-6.644 4.624-2.38 2.156-4.526 4.66-5.872 7.625-.13-.297.152-.57.221-.848 1.299-3.494 3.535-6.585 6.208-9.121.486-.525 1.105-.904 1.567-1.447-5.47-.34-10.942-.669-16.413-.98-3.645.351-7.296.698-10.935 1.08.414-.219.882-.245 1.337-.307 3.06-.59 6.132-1.143 9.195-1.73.36-.075.73-.088 1.098-.059zM21.05 23.515c-.444.942-.813 1.92-1.218 2.88-1.054-.02-2.103-.29-3.154-.07-5.267.263-10.225 3.831-12.166 8.837.295-2.88 1.573-5.618 3.491-7.745 2.084-2.289 4.963-3.814 8.006-4.212 1.681-.201 3.4-.122 5.04.31zm61.72 1.132c3.624.023 7.105 1.972 9.229 4.937-.383.304-.655.839-1.117.989-1.494-1.243-3.21-2.23-5.091-2.712-2.5-.685-5.19-.55-7.625.326-3.091 1.097-5.71 3.49-7.08 6.521l-.126.478a19.37 19.37 0 00-.071-.315c.427-3.039 2.06-5.884 4.457-7.75 2.097-1.661 4.765-2.571 7.424-2.474z"/></svg>